Patient4_TMGait_0pt7_01_right_49_EMG.mot
version=1
nRows=27
nColumns=33
inDegrees=no
endheader
time	1LAddLong	2LGlutMax	3LGlutMed	4LIliopsoas	5LSemiMemb	6LBicFemLong	7LRecFem	8LVastMed	9LVastLat	10LGasMed	11LTibAnt	12lTibPost	13LPeroneusLong	14LSol	15LExtDigLong	16LFlexDigLong	17RAddLong	18RGlutMax	19RGlutMed	20RIliopsoas	21RSemiMemb	22RBicFemLong	23RRecFem	24RVastMed	25RVastLat	26RGasMed	27RTibAnt	28RTibPost	29RPeroneusLong	30RSol	31RExtDigLong	32RFlexDigLong
57.19	0.029907	0.6218	0.027924	-0.006409	0.12314	0.072327	-0.074615	0.000916	0.030975	0.003967	0.027313	0.006256	0.001678	-0.050049	0.027618	-0.028534	0.012817	0.26627	0.36346	0.30655	0.29282	-0.20081	-0.55588	-0.022888	-0.015259	0.049591	0.03479	0.057373	0.25436	-0.48874	0.002899	-0.020905
57.191	0.034637	0.51956	0.037231	-0.002899	0.047913	0.13886	-0.060577	-0.005798	-0.005188	-0.005493	0.066986	0.009155	0.011139	-0.043793	0.021667	-0.026245	0.025787	0.23834	0.37598	0.1886	0.36026	-0.3331	-0.59387	0.004883	-0.014648	0.046997	0.023651	0.056915	-0.059509	-0.58731	0	-0.013428
57.192	0.039215	0.39398	0.06012	0.008087	0.068207	0.20538	-0.10574	-0.024872	-0.015259	-0.000916	0.08316	0.01297	0.015106	-0.024719	0.003052	-0.023956	0.019531	0.26932	0.30228	0.078583	0.25146	-0.37537	-0.56122	-0.09491	-0.007629	-0.029449	0.055237	-0.20752	-0.80429	-0.21225	-0.002136	-0.013123
57.193	0.061188	0.35111	0.090332	-0.002747	0.078125	0.20294	-0.055695	-0.031738	-0.033112	-0.008698	0.010529	-0.001068	0.02182	-0.026703	-0.027771	-0.026245	0.015717	0.2655	0.40237	0.009155	0.13611	-0.29633	-0.55801	-0.089417	-0.01236	-0.12344	-0.023651	-0.096741	-1.0046	0.36636	-0.007935	-0.005035
57.194	0.037384	0.3479	0.11108	-0.007172	0.066528	0.16312	-0.04776	-0.028534	-0.045624	-0.011292	-0.017853	0.005035	0.048523	0.011902	0.002289	-0.025024	0.01358	0.21194	0.39185	0.005646	0.070038	-0.18997	-0.5751	-0.028534	-0.006561	-0.066376	-0.088348	-0.34851	-0.39932	0.44098	-0.00061	-0.014343
57.195	0.020599	0.41107	0.09201	-0.019531	-0.001068	0.10132	-0.00473	-0.016327	-0.021362	-0.004272	-0.003052	0.014191	0.027161	0.023041	0.072327	-0.024109	0.018005	0.26215	0.34027	-0.071869	0.0383	-0.10956	-0.63522	0.026093	0.002747	-0.10376	-0.072174	-0.41397	-0.030975	0.29419	-0.002899	-0.019836
57.196	-0.001831	0.39139	0.061035	-0.006104	0.00473	-0.092163	-0.031281	-0.006866	0.055695	-0.002899	0.040588	0.007629	0.018158	0.011597	-0.024109	-0.020905	-0.002899	0.32638	0.34561	-0.040283	0.14999	-0.028839	-0.64179	0.056305	0.000763	-0.033722	-0.044556	-0.23804	0.19806	0.21927	-0.002289	-0.031738
57.197	-0.015259	0.39459	0.047302	0.007172	0.022888	-0.24323	-0.076599	0.005951	0.11444	-0.007324	0.075989	0	0.060883	-0.007935	-0.040588	-0.019989	-0.007324	0.30502	0.6105	-0.10651	0.17273	-0.042725	-0.5867	0.005188	-0.005493	0.049591	-0.009766	0.62164	0.46188	0.68878	0.005646	-0.026245
57.198	-0.042725	0.34286	0.01709	0.017242	0.0354	-0.22446	-0.070038	0.006866	0.14725	-0.011902	0.077667	-0.001526	0.065308	-0.014038	0.024261	-0.021057	0.014038	0.336	0.42191	-0.074005	0.15045	-0.027313	-0.63187	0.03418	-0.010223	0.055847	0.06958	0.39917	0.11734	0.6218	-0.00351	-0.027924
57.199	-0.027924	0.3035	0.002594	0.001068	0.05722	-0.2092	-0.074768	0.02121	0.17349	-0.020905	-0.024872	0.002136	0.054169	-0.013885	-0.001221	-0.013275	0.00473	0.30472	0.21774	-0.076294	0.036926	-0.081177	-0.63324	0.014038	-0.003815	0.049896	0.093689	-0.043335	-0.064545	0.96909	-0.002594	-0.020905
57.2	-0.019684	0.30472	-0.007019	0.016174	0.057678	-0.22553	-0.10071	0.038605	0.2504	-0.015106	-0.19409	-0.003967	0.050201	-0.003967	-0.007019	-0.016174	0.000458	0.32242	0.2655	-0.036316	-0.04303	-0.11307	-0.66208	0.037537	0.011902	0.037689	0.008087	0.39764	0.25726	0.46509	-0.00061	-0.008087
57.201	-0.004578	0.37048	-0.015564	-0.016479	0.011139	-0.19623	-0.14465	-0.010223	0.2385	-0.002899	-0.23468	0	0.040894	-0.003357	-0.026093	-0.017548	-0.001526	0.25955	0.24536	0.037231	0.14404	-0.18768	-0.6337	0.019836	0.022125	0.006104	-0.00824	0.28168	0.26642	-0.51834	-0.002441	-0.022125
57.202	0.016479	0.37155	0.006256	-0.02182	-0.035248	-0.10849	-0.24155	-0.027313	0.1741	-0.010681	-0.14877	0.001373	0.046387	-0.000305	-0.032349	-0.011749	0.004883	0.23331	0.29984	0.14114	0.091858	-0.19028	-0.63629	-0.009308	-0.013733	0.030518	-0.016174	-0.023804	0.23804	-0.49622	-0.000153	-0.029144
57.203	0.031281	0.43778	0.026398	-0.012817	0.047913	-0.093536	-0.19012	-0.021667	-0.039063	0.001221	-0.087738	0.00473	0.078125	0.006866	-0.031738	-0.00351	0.021515	0.19394	0.25574	0.06424	0.056152	-0.14587	-0.63705	-0.068207	-0.026245	0.001068	0.016785	-0.012054	0.26657	-0.20905	0.001984	-0.031433
57.204	0.020294	0.41229	0.04364	0.00824	0.18585	0.048828	-0.080414	-0.011139	-0.20569	0.00824	-0.10117	-0.000458	0.089111	0.020752	-0.032654	-0.011597	0.013275	0.20264	0.28473	-0.019073	0.048065	-0.10284	-0.64285	-0.071869	0.00473	0.003204	0.040131	-0.022278	0.27847	-0.42297	0.000305	-0.030365
57.205	0.011292	0.40604	0.041199	0.02594	0.19333	0.20783	-0.044403	-0.017395	-0.18341	0.003967	-0.059967	-0.002594	0.093536	0.037689	-0.000916	-0.001068	0.016022	0.15915	0.30853	-0.03891	0.0383	-0.019226	-0.70358	-0.001984	0.00885	0.010986	-0.014038	-0.037384	0.051422	-0.12177	0.000458	-0.023041
57.206	-0.000916	0.40649	0.053864	0.001526	0.091095	0.37262	-0.041656	-0.004578	-0.12054	0.016479	0.053101	0.001373	0.028076	0.027771	0.049133	-0.007935	0.022888	0.17136	0.30258	-0.010071	0.097656	0.075989	-0.74036	0.001068	0.018463	0.009308	-0.070038	-0.056	-0.093689	0.079193	-0.003052	-0.021362
57.207	-0.009613	0.39093	0.06485	-0.006714	0.028229	0.42877	-0.04425	0.005646	-0.047607	0.006561	0.062866	0.001221	0.029755	0.031281	0.024414	-0.001831	0.026245	0.15213	0.35309	0.015411	0.072327	0.063019	-0.71793	-0.006104	0.002136	0.020905	-0.14084	-0.042419	-0.046387	0.18463	-0.000153	-0.023499
57.208	-0.011749	0.3891	0.13962	0.008698	0.035858	0.41718	-0.09201	0.011749	0.041656	0.01236	0.046234	0.006256	0.080109	0.026855	-0.012665	0	0.023346	0.12482	0.48202	0.065613	0.022125	0.026093	-0.70633	0.018768	0.001373	0.001068	-0.086365	-0.044556	-0.040436	0.18967	-0.00061	-0.022583
57.209	-0.013733	0.42602	0.11765	0.010529	0.077515	0.39597	-0.17716	0.018463	0.063019	0.010986	0.056152	0.009918	0.096588	0.041046	-0.013733	-0.007477	0.014954	0.16205	-0.045319	0.086823	-0.003052	-0.042114	-0.67596	-0.027008	-0.017548	-0.016174	0.053864	-0.03891	-0.002136	0.17044	0	-0.026093
57.21	0.002136	0.32516	0.12848	0.003204	0.037689	0.31097	-0.24582	0.006866	0.007477	0.030975	0.047455	0.008087	0.11307	0.018005	-0.021515	0.000763	0.021057	0.12436	0.019073	0.027618	0.030212	-0.031891	-0.66696	-0.020294	-0.00412	-0.023346	0.044403	-0.044861	0.10864	0.11429	-0.003662	-0.024567
57.211	-0.006256	0.28549	0.11078	-0.016785	0.02594	0.17593	-0.15152	0.007477	-0.054626	-0.022125	0.036163	0.00473	0.14496	0.010834	-0.041809	-0.007477	0.025482	0.060883	0.29007	-0.059509	0.07843	0.059967	-0.68893	-0.035095	0.005493	-0.001831	-0.034637	-0.050354	0.14938	0.018158	-0.001221	-0.0177
57.212	-0.008392	0.21713	0.060577	-0.005188	0.012665	0.10712	-0.058746	0.009918	-0.059814	0.067291	-0.011444	0.012512	0.12787	0.024261	-0.033875	0.008392	0.028839	0.048065	0.49027	-0.069122	0.097046	0.09613	-0.69321	-0.015411	0.006104	0.023651	-0.029297	-0.055542	0.2771	-0.10452	-0.00061	-0.019989
57.213	-0.014343	0.18906	0.033264	0.005341	-0.039368	0.065308	0.011444	0.016022	-0.25803	0.12512	-0.012817	0.010071	0.075989	0.011749	-0.048981	0.010681	0.007782	0.048981	0.58365	0.024109	0.073395	0.095062	-0.72433	0.016785	0	0.029602	-0.014038	-0.051117	0.22873	-0.1033	-0.000305	-0.023804
57.214	-0.025635	0.1503	-0.030823	0.012054	-0.085754	0.045319	0.039978	0.015717	-0.42252	0.11902	-0.020294	0.014343	0.064697	-0.016937	-0.089264	0.01358	-0.029602	0.010529	0.23209	0.059509	0.069733	0.14969	-0.74738	0.093994	0.024109	0.066528	0.000305	-0.01358	0.089722	-0.22354	-0.003204	-0.014954
57.215	-0.035248	0.1001	-0.091248	0.02533	-0.069122	0.15762	0.028534	0.016479	-0.30914	0.099792	-0.005188	0.017548	0.004578	-0.019531	0.000305	0.007324	-0.016174	0.014801	0.18692	0.006104	0.096436	0.23056	-0.71274	0.072784	-0.009003	0.12344	0.090942	0.010986	-0.18662	-0.45181	-0.008698	-0.020447
57.216	-0.033722	0.034485	-0.15595	-0.004425	-0.057983	0.31052	-0.038452	0.011292	-0.11536	0.010834	-0.005341	0.016632	0.019684	0.002289	0.32928	0.014954	-0.004883	0.028534	0.3801	-0.047455	0.12085	0.30762	-0.6929	0.01709	-0.026093	0.11551	0.14084	-0.046539	-0.66223	-0.4538	-0.004883	-0.024109
